<svg xmlns="http://www.w3.org/2000/svg" viewBox="0 0 100 100">
  <rect width="100" height="100" rx="22" fill="#2A2521"/>
  <path
    d="M50,20 C66,20 76,32 76,48 C76,62 65,73 51,75 C59,71 63,62 63,53 C63,41 55,32 43,32 C38,32 34,34 30,37 C35,24 42,20 50,20 Z"
    stroke="#C6A15B"
    stroke-width="5.5"
    stroke-linecap="round"
    stroke-linejoin="round"
    fill="none"
  />
  <path
    d="M50,80 C34,80 24,68 24,52 C24,38 35,27 49,25 C41,29 37,38 37,47 C37,59 45,68 57,68 C62,68 66,66 70,63 C65,76 59,80 50,80 Z"
    stroke="#C6A15B"
    stroke-width="5.5"
    stroke-linecap="round"
    stroke-linejoin="round"
    fill="none"
  />
  <circle cx="50" cy="50" r="4" fill="#C6A15B"/>
</svg>
